<?xml version="1.0" encoding="UTF-8"?>
<svg id="logosandtypes_com" data-name="logosandtypes com" xmlns="http://www.w3.org/2000/svg" viewBox="0 0 150 150">
  <defs>
    <style>
      .cls-1 {
        fill: #016aff;
      }

      .cls-2 {
        fill: none;
      }

      .cls-3 {
        fill: #141414;
      }
    </style>
  </defs>
  <path class="cls-2" d="M0,0H150V150H0V0Z"/>
  <path class="cls-3" d="M107.65,74.76c-1.07,.67-2.22,1.22-3.39,1.65v6.69c0,16.81-13.67,30.49-30.47,30.49h-.19c-16.71-.09-30.31-13.94-30.31-30.86V30.94c0-7.1-5.77-12.87-12.87-12.87s-12.87,5.77-12.87,12.87v51.71c0,14.97,5.85,29.15,16.49,39.91,10.67,10.8,24.78,16.76,39.71,16.77h.02c31,0,56.23-25.22,56.23-56.23v-22.32l-22.34,13.98h0Z"/>
  <path class="cls-1" d="M134.05,34.7L101.1,14.06c-3.42-2.15-7.87,.32-7.87,4.36V59.69c0,4.04,4.44,6.5,7.87,4.36l32.96-20.63c3.21-2.01,3.21-6.7,0-8.71h0Z"/>
</svg>