<svg xmlns="http://www.w3.org/2000/svg" fill="none" class="icon header-logo-icon" viewBox="0 0 145 35">
  <g clip-path="url(#a)">
    <g clip-path="url(#b)">
      <path fill="#0F172A" fill-rule="evenodd" d="M11.921 2.503 21.786.865C24.409.429 26.56.072 28.298.017c1.82-.059 3.46.199 4.91 1.225 1.449 1.026 2.228 2.482 2.765 4.208.513 1.649.873 3.783 1.312 6.386l.285 1.69c.438 2.604.798 4.738.854 6.463.059 1.806-.2 3.434-1.234 4.873-1.034 1.438-2.5 2.212-4.24 2.745-1.662.509-3.813.866-6.436 1.301l-9.864 1.639c-2.623.435-4.774.793-6.512.848-1.82.058-3.46-.2-4.91-1.225C3.78 29.144 3 27.688 2.463 25.962c-.513-1.65-.873-3.784-1.312-6.387l-.285-1.69c-.439-2.603-.799-4.738-.855-6.463-.058-1.805.2-3.434 1.235-4.872 1.034-1.439 2.5-2.212 4.24-2.745 1.661-.509 3.812-.866 6.435-1.302ZM6.57 7.29c-1.347.412-1.954.85-2.334 1.378-.38.529-.598 1.24-.553 2.638.047 1.451.362 3.343.828 6.106l.242 1.434c.465 2.763.788 4.654 1.22 6.041.416 1.337.856 1.939 1.389 2.316.532.377 1.25.594 2.658.55 1.462-.048 3.368-.36 6.152-.823l9.607-1.595c2.784-.462 4.69-.783 6.087-1.211 1.347-.413 1.953-.85 2.333-1.379.38-.528.599-1.24.554-2.638-.047-1.45-.362-3.343-.828-6.106l-.242-1.434c-.466-2.763-.789-4.653-1.22-6.04-.416-1.337-.857-1.939-1.39-2.316-.532-.377-1.249-.594-2.657-.55-1.462.047-3.369.36-6.153.822l-9.607 1.596c-2.784.462-4.689.782-6.086 1.21Z" clip-rule="evenodd"/>
      <path fill="#006AFF" d="M47.021 24.063c0 6.04-4.934 10.937-11.02 10.937-6.087 0-11.02-4.897-11.02-10.938 0-6.04 4.933-10.937 11.02-10.937 6.086 0 11.02 4.897 11.02 10.938Z"/>
      <path fill="#fff" d="M33.062 27.15v-6.175c0-.738 0-1.106.254-1.243.254-.136.591.05 1.266.424l5.574 3.088c.659.365.988.547.988.819 0 .271-.33.453-.988.818l-5.574 3.088c-.675.374-1.012.56-1.266.424-.254-.137-.254-.506-.254-1.243Z"/>
    </g>
    <path fill="#0F172A" d="M61.469 24.558c1.551 0 2.974-.641 3.75-1.925h.129l.388 1.669h2.457V10.698h-2.974v8.034c0 1.72-1.164 3.131-2.974 3.131-1.681 0-2.845-1.155-2.845-3.08v-8.085h-2.974v8.342c0 3.337 2.069 5.518 5.043 5.518Zm14.041 0c3.88 0 5.69-1.796 5.69-4.106 0-5.519-7.888-3.465-7.888-6.032 0-.77.647-1.283 2.07-1.283 1.55 0 2.197.641 2.456 1.283h3.233c-.517-2.31-2.328-3.978-5.69-3.978-3.362 0-5.172 1.796-5.172 3.978 0 5.647 7.888 3.465 7.888 6.032 0 .77-.647 1.411-2.587 1.411-1.422 0-2.327-.641-2.586-1.54h-3.232c.517 2.439 2.457 4.235 5.819 4.235Zm13.138 0c3.362 0 5.431-2.053 6.078-4.491h-2.974c-.647 1.155-1.552 1.796-3.104 1.796-2.069 0-3.491-1.54-3.491-4.363 0-2.823 1.422-4.363 3.491-4.363 1.552 0 2.457.641 3.104 1.796h2.974c-.647-2.438-2.716-4.491-6.078-4.491-3.879 0-6.465 2.566-6.465 7.058s2.586 7.058 6.465 7.058Zm7.699-.256h2.974v-7.444c0-2.053 1.423-3.336 3.621-3.336h1.422v-2.824h-1.681c-1.422 0-2.586.514-3.362 1.669h-.13l-.387-1.669h-2.457v13.604Zm14.667.256c3.388 0 5.327-1.925 6.103-4.235h-3.233c-.646.899-1.422 1.54-2.844 1.54-2.069 0-3.363-1.411-3.492-3.465h9.698s.13-.513.13-1.283c0-3.593-2.328-6.673-6.466-6.673-3.879 0-6.465 2.566-6.465 7.058s2.586 7.058 6.569 7.058Zm-3.466-8.47c.388-1.796 1.552-2.951 3.362-2.951 1.94 0 3.104 1.283 3.362 2.951h-6.724Zm17.64 8.47c3.388 0 5.327-1.925 6.103-4.235h-3.232c-.647.899-1.423 1.54-2.845 1.54-2.069 0-3.362-1.411-3.492-3.465h9.699s.129-.513.129-1.283c0-3.593-2.328-6.673-6.466-6.673-3.879 0-6.465 2.566-6.465 7.058s2.586 7.058 6.569 7.058Zm-3.466-8.47c.388-1.796 1.552-2.951 3.362-2.951 1.94 0 3.104 1.283 3.362 2.951h-6.724Zm11.511 8.214h2.974v-8.034c0-1.72 1.164-3.131 2.974-3.131 1.681 0 2.845 1.155 2.845 3.08v8.085H145V15.96c0-3.337-2.069-5.518-5.043-5.518-1.552 0-2.974.641-3.75 1.925h-.129l-.388-1.669h-2.457v13.604Z" class="hidden lg:block"/>
  </g>
  <defs>
    <clipPath id="a">
      <path fill="#fff" d="M0 0h145v35H0z"/>
    </clipPath>
    <clipPath id="b">
      <path fill="#fff" d="M0 0h47.021v35H0z"/>
    </clipPath>
  </defs>
</svg>
